<?xml version="1.0" encoding="utf-8"?>
<!-- Generator: Adobe Illustrator 25.2.3, SVG Export Plug-In . SVG Version: 6.00 Build 0)  -->
<svg version="1.1" id="Layer_1" xmlns="http://www.w3.org/2000/svg" xmlns:xlink="http://www.w3.org/1999/xlink" x="0px" y="0px"
	 viewBox="0 0 30.8 191.4" style="enable-background:new 0 0 30.8 191.4;" xml:space="preserve">
<g>
	<path d="M27.5,191.4c-1.8,0-3.3-1.5-3.3-3.3c0-3.4-4.1-5.6-10.2-8.6c-6.6-3.1-14-6.7-14-14.5c0-7.9,7.4-11.4,14-14.5
		c6.2-2.9,10.2-5.1,10.2-8.6c0-3.4-4.1-5.6-10.2-8.6c-6.6-3.1-14-6.7-14-14.5s7.4-11.4,14-14.5c6.2-2.9,10.2-5.1,10.2-8.6
		s-4.1-5.6-10.2-8.6C7.4,84,0,80.4,0,72.6s7.4-11.4,14-14.5c6.2-3,10.2-5.1,10.2-8.6s-4.1-5.6-10.2-8.6C7.4,37.8,0,34.2,0,26.4
		S7.4,15,14,11.9c6.2-2.9,10.2-5.1,10.2-8.6c0-1.8,1.5-3.3,3.3-3.3s3.3,1.5,3.3,3.3c0,7.8-7.4,11.4-14,14.5
		c-6.2,3-10.2,5.1-10.2,8.6S10.6,32,16.8,35c6.6,3.1,14,6.7,14,14.5s-7.4,11.4-14,14.5C10.6,67,6.6,69.2,6.6,72.6s4.1,5.6,10.2,8.6
		c6.6,3.1,14,6.7,14,14.5s-7.4,11.4-14,14.5c-6.2,2.9-10.2,5.1-10.2,8.6s4.1,5.6,10.2,8.6c6.6,3.1,14,6.7,14,14.5s-7.4,11.4-14,14.5
		c-6.2,2.9-10.2,5.1-10.2,8.6c0,3.4,4.1,5.6,10.2,8.6c6.6,3.1,14,6.7,14,14.5C30.8,189.9,29.3,191.4,27.5,191.4z"/>
</g>
<g id="Layer_2_1_">
</g>
</svg>
