<?xml version="1.0" encoding="utf-8"?>
<!-- Generator: Adobe Illustrator 25.2.3, SVG Export Plug-In . SVG Version: 6.00 Build 0)  -->
<svg version="1.1" id="Layer_1" xmlns="http://www.w3.org/2000/svg" xmlns:xlink="http://www.w3.org/1999/xlink" x="0px" y="0px"
	 viewBox="0 0 191.4 30.8" style="enable-background:new 0 0 191.4 30.8;" xml:space="preserve">
<g>
	<path d="M0,27.5c0-1.8,1.5-3.3,3.3-3.3c3.4,0,5.6-4.1,8.6-10.2C15,7.4,18.5,0,26.4,0c7.9,0,11.4,7.4,14.5,14
		c2.9,6.2,5.1,10.2,8.6,10.2c3.4,0,5.6-4.1,8.6-10.2c3.1-6.6,6.7-14,14.5-14S84,7.4,87.1,14c2.9,6.2,5.1,10.2,8.6,10.2
		s5.6-4.1,8.6-10.2c3.1-6.6,6.7-14,14.5-14s11.4,7.4,14.5,14c2.9,6.2,5.1,10.2,8.6,10.2c3.4,0,5.6-4.1,8.6-10.2
		c3.1-6.6,6.7-14,14.5-14s11.4,7.4,14.5,14c2.9,6.2,5.1,10.2,8.6,10.2c1.8,0,3.3,1.5,3.3,3.3s-1.5,3.3-3.3,3.3
		c-7.9,0-11.4-7.4-14.5-14c-3-6.2-5.1-10.2-8.6-10.2s-5.6,4.1-8.6,10.2c-3.1,6.6-6.7,14-14.5,14c-7.8,0-11.4-7.4-14.5-14
		c-2.9-6.2-5.1-10.2-8.6-10.2s-5.6,4.1-8.6,10.2c-3.1,6.6-6.7,14-14.5,14s-11.4-7.4-14.5-14c-2.9-6.2-5.1-10.2-8.6-10.2
		S67,10.6,64,16.8c-3.1,6.6-6.7,14-14.5,14s-11.4-7.4-14.5-14C32,10.6,29.8,6.6,26.4,6.6c-3.4,0-5.6,4.1-8.6,10.2
		c-3.1,6.6-6.7,14-14.5,14C1.5,30.8,0,29.3,0,27.5z"/>
</g>
<g id="Layer_2_1_">
</g>
</svg>
