<svg enable-background="new 0 0 308.2 200" viewBox="0 0 308.2 200" xmlns="http://www.w3.org/2000/svg"><path d="m54.47 50.22 17.34-43.34h8.67l17.31 43.31-9.22.03-2.6-6.65h-19.65l-2.6 6.65zm21.9-31.78-6.59 16.47h13z"/><path d="m104.14 24.79c3.66-2.31 7.9-3.47 12.71-3.47 3.47 0 6.21.96 8.23 2.89s3.03 4.82 3.03 8.67v17.34h-8.09v-2.31c-2.35 1.54-4.47 2.31-6.36 2.31-3.85 0-6.74-.82-8.67-2.46s-2.89-3.9-2.89-6.79c0-2.7.91-5.1 2.73-7.22s4.76-3.18 8.83-3.18c1.87 0 3.99.58 6.36 1.73v-.87c-.04-2.12-1.58-3.27-4.62-3.47-3.47 0-6.16.58-8.09 1.73zm15.89 16.76v-3.27c-.77-1.48-2.6-2.22-5.49-2.22-3.47.39-5.3 1.73-5.49 4.05.19 2.29 2.02 3.54 5.49 3.73 2.89-.01 4.72-.77 5.49-2.29z"/><path d="m142.8 24.5c2.06-2.12 4.58-3.18 7.54-3.18.94 0 1.84.08 2.69.23l-1.27 7.97c-.94-.85-2.29-1.3-4.05-1.36-1.96.13-3.6 1.56-4.91 4.28v17.77h-8.09v-28.05l8.09-.87z"/><path d="m166.44 30.69v19.53h-8.09v-43.34h8.09v17.05c1.95-1.73 4.26-2.6 6.93-2.6 3.66 0 6.45 1.11 8.38 3.32 1.93 2.22 2.89 4.77 2.89 7.66v17.91h-8.09v-15.89c0-1.93-.48-3.42-1.44-4.48s-2.42-1.62-4.36-1.68c-1.68.12-3.12.96-4.31 2.52z"/><path d="m207.56 39.96v-18.66h8.09v28.92h-8.09v-2.63c-1.95 1.73-4.26 2.6-6.93 2.6-3.66 0-6.45-1.11-8.38-3.32s-2.89-4.77-2.89-7.66v-17.91h8.09v15.89c0 1.93.48 3.42 1.44 4.48s2.42 1.62 4.36 1.68c1.68-.12 3.11-1.25 4.31-3.39z"/><path d="m238.96 22.13c1.5.66 2.91 1.63 4.22 2.92l-4.51 5.09c-1.31-1.56-2.95-2.34-4.91-2.34-1.95 0-3.25.36-3.9 1.08s-.65 1.38 0 1.97 1.95 1.07 3.9 1.46c2.87.27 5.22 1.09 7.05 2.46s2.74 3.75 2.74 7.14c0 2.74-1.08 4.85-3.24 6.36-2.16 1.5-4.67 2.25-7.54 2.25-2.74 0-5.01-.39-6.83-1.17s-3.39-1.82-4.7-3.14l4.48-5.06c1.31 1.56 3.34 2.47 6.1 2.72 2.21 0 3.65-.36 4.29-1.08.65-.72.74-1.44.29-2.17-.45-.72-1.98-1.21-4.58-1.46-2.35-.27-4.5-.99-6.46-2.17-1.96-1.17-2.93-3.39-2.93-6.65 0-2.99 1.11-5.26 3.34-6.83 2.22-1.57 4.51-2.36 6.86-2.36 2.72 0 4.83.33 6.33.98z"/><path d="m65.51 77.89v35.25h23.12v8.09h-31.79v-43.34z"/><path d="m113.01 111.23v-18.9h8.09v26.58c0 4.04-1.25 7.43-3.76 10.14-2.5 2.72-5.49 4.15-8.96 4.3l-1.73.17c-4.05-.12-7.71-1.71-10.98-4.8l3.76-4.33c2.31 1.73 4.5 2.7 6.56 2.89 2.5 0 4.3-.63 5.39-1.88s1.63-3.03 1.63-5.35v-1.47c-2.04 1.75-4.4 2.63-7.08 2.63-3.66 0-6.45-1.11-8.38-3.32s-2.89-4.77-2.89-7.66v-17.89h8.09v15.89c0 1.93.48 3.42 1.44 4.48s2.42 1.62 4.36 1.68c1.71-.12 3.19-1.17 4.46-3.16z"/><path d="m155.11 77.92v43.31h-8.09v-2.31c-2.16 1.54-4.28 2.31-6.36 2.31-4.43 0-7.95-1.44-10.55-4.33s-3.9-6.26-3.9-10.11 1.3-7.22 3.9-10.11 6.12-4.33 10.55-4.33c2.89.19 5.01.97 6.36 2.34v-16.8zm-8.09 31.46v-4.68c-.39-3.24-2.41-5.13-6.07-5.69-4.62.37-7.22 2.76-7.8 7.19.19 5.39 2.79 8.19 7.8 8.38 3.66-.57 5.69-2.31 6.07-5.2z"/><path d="m162.97 77.89h8.67v24.53l8.29-10.08h9.74l-10.81 12.97 13.7 15.92h-11.27l-9.65-11.53v11.53h-8.67z"/><path d="m214.32 110.97v-18.66h8.09v28.92h-8.09v-2.63c-1.95 1.73-4.26 2.6-6.93 2.6-3.66 0-6.45-1.11-8.38-3.32s-2.89-4.77-2.89-7.66v-17.91h8.09v15.89c0 1.93.48 3.42 1.44 4.48s2.42 1.62 4.36 1.68c1.68-.12 3.11-1.25 4.31-3.39z"/><path d="m237.49 102.85v18.38h-8.09v-28.06l8.09-.87v2.63c1.95-1.73 4.26-2.6 6.93-2.6 3.66 0 6.45 1.11 8.38 3.32s2.89 4.77 2.89 7.66v17.92h-8.09v-15.89c0-1.93-.48-3.42-1.44-4.48s-2.42-1.62-4.36-1.68c-1.68.12-3.12 1.34-4.31 3.67z"/><path d="m278.81 93.15c1.5.65 2.91 1.63 4.22 2.92l-4.51 5.09c-1.31-1.56-2.95-2.34-4.91-2.34-1.95 0-3.25.36-3.9 1.08s-.65 1.38 0 1.96c.65.59 1.95 1.07 3.9 1.46 2.87.27 5.22 1.09 7.05 2.46s2.75 3.75 2.75 7.14c0 2.74-1.08 4.85-3.24 6.36-2.16 1.5-4.67 2.25-7.54 2.25-2.74 0-5.01-.39-6.83-1.17s-3.39-1.82-4.7-3.14l4.48-5.06c1.31 1.56 3.34 2.47 6.1 2.72 2.21 0 3.64-.36 4.29-1.08s.74-1.44.29-2.17c-.45-.72-1.98-1.21-4.58-1.46-2.35-.27-4.5-.99-6.46-2.17-1.96-1.17-2.93-3.39-2.93-6.65 0-2.99 1.11-5.26 3.34-6.83s4.51-2.36 6.86-2.36c2.71 0 4.82.33 6.32.99z"/><path d="m302.36 121.23c-3.28 0-5.88-.91-7.8-2.75-1.93-1.83-2.89-4.19-2.89-7.08v-12.5h-4.33v-6.53h4.33v-7.83l8.12-.87v8.7h4.33v6.53h-4.33v11.36c0 1.54.32 2.63.97 3.25s1.48.94 2.5.94c.31 0 1.03-.13 2.17-.38l1.7 5.81c-1.39.9-2.98 1.35-4.77 1.35z"/><path d="m56.73 192.24v-43.34h30.48v8.09h-21.82v9.25h16.09v8.06h-16.09v17.94z"/><path d="m91.31 177.8c0-4.24 1.35-7.7 4.05-10.4s6.16-4.05 10.4-4.05 7.61 1.35 10.11 4.05 3.76 6.16 3.76 10.4v2.89h-19.94c.19 1.54.87 2.75 2.02 3.61 1.16.87 2.5 1.3 4.05 1.3 2.7 0 5.1-.77 7.22-2.31l4.62 4.62c-2.12 2.89-6.07 4.33-11.85 4.33-4.24 0-7.71-1.35-10.4-4.05-2.69-2.69-4.04-6.16-4.04-10.39zm18.49-6.51c-1.16-.87-2.5-1.3-4.05-1.3-1.54 0-2.89.43-4.05 1.3s-1.73 2.07-1.73 3.61h11.56c.01-1.53-.57-2.74-1.73-3.61z"/><path d="m142.31 164.16c1.5.65 2.91 1.63 4.22 2.92l-4.51 5.09c-1.31-1.56-2.95-2.34-4.91-2.34-1.95 0-3.25.36-3.9 1.08s-.65 1.38 0 1.97 1.95 1.07 3.9 1.46c2.87.27 5.22 1.09 7.05 2.46s2.74 3.75 2.74 7.14c0 2.74-1.08 4.85-3.24 6.36-2.16 1.5-4.67 2.25-7.54 2.25-2.74 0-5.01-.39-6.83-1.17s-3.39-1.82-4.7-3.14l4.48-5.06c1.31 1.56 3.34 2.47 6.1 2.72 2.21 0 3.65-.36 4.29-1.08.65-.72.74-1.44.29-2.17-.45-.72-1.98-1.21-4.58-1.46-2.35-.27-4.5-.99-6.46-2.17-1.96-1.17-2.93-3.39-2.93-6.65 0-2.99 1.11-5.26 3.34-6.83 2.22-1.57 4.51-2.36 6.86-2.36 2.72-.01 4.83.32 6.33.98z"/><path d="m165.86 192.24c-3.28 0-5.88-.91-7.8-2.75-1.93-1.83-2.89-4.19-2.89-7.08v-12.51h-4.33v-6.53h4.33v-7.83l8.12-.87v8.7h4.33v6.53h-4.33v11.36c0 1.54.32 2.63.97 3.25.65.63 1.48.94 2.5.94.31 0 1.03-.13 2.17-.38l1.7 5.81c-1.39.91-2.98 1.36-4.77 1.36z"/><path d="m176.41 153.51c.77-.78 1.81-1.17 3.12-1.17 1.39 0 2.47.39 3.24 1.17s1.16 1.75 1.16 2.9c0 1.16-.39 2.12-1.16 2.89s-1.83 1.16-3.18 1.16-2.41-.39-3.18-1.16-1.16-1.73-1.16-2.89c0-1.15.39-2.12 1.16-2.9zm7.22 38.73v-28.92h-8.09v28.92z"/><path d="m196.49 163.35 6.79 18.06 6.93-18.06h8.21l-11.59 28.89h-6.93l-11.62-28.89z"/><path d="m224.23 166.82c3.66-2.31 7.9-3.47 12.71-3.47 3.47 0 6.21.96 8.23 2.89s3.03 4.82 3.03 8.67v17.34h-8.09v-2.31c-2.35 1.54-4.47 2.31-6.36 2.31-3.85 0-6.74-.82-8.67-2.46s-2.89-3.9-2.89-6.79c0-2.7.91-5.1 2.73-7.22s4.76-3.18 8.83-3.18c1.87 0 3.99.58 6.36 1.73v-.87c-.04-2.12-1.58-3.27-4.62-3.47-3.47 0-6.16.58-8.09 1.73zm15.89 16.75v-3.27c-.77-1.48-2.6-2.22-5.49-2.22-3.47.39-5.3 1.73-5.49 4.05.19 2.29 2.02 3.54 5.49 3.73 2.89 0 4.72-.76 5.49-2.29z"/><path d="m255.43 192.24v-43.34h8.09v43.34z"/><path d="m29.52 195.41c-1.82 0-3.29-1.47-3.29-3.29 0-3.44-4.06-5.64-10.24-8.59-6.56-3.12-13.99-6.66-13.99-14.52 0-7.85 7.43-11.4 13.99-14.52 6.19-2.95 10.24-5.14 10.24-8.59 0-3.44-4.06-5.64-10.24-8.59-6.56-3.12-13.99-6.66-13.99-14.51s7.43-11.39 13.99-14.52c6.19-2.95 10.24-5.14 10.24-8.58s-4.06-5.64-10.24-8.58c-6.56-3.13-13.99-6.68-13.99-14.53s7.43-11.39 13.99-14.52c6.19-2.95 10.24-5.14 10.24-8.58s-4.06-5.63-10.24-8.58c-6.56-3.13-13.99-6.67-13.99-14.52s7.43-11.39 13.99-14.52c6.19-2.95 10.24-5.14 10.24-8.58 0-1.82 1.47-3.29 3.29-3.29s3.29 1.47 3.29 3.29c0 7.85-7.43 11.39-13.99 14.52-6.19 2.95-10.24 5.14-10.24 8.58s4.06 5.63 10.24 8.58c6.56 3.13 13.99 6.67 13.99 14.52s-7.43 11.39-13.99 14.52c-6.19 2.95-10.24 5.14-10.24 8.58s4.06 5.64 10.24 8.58c6.56 3.13 13.99 6.67 13.99 14.52s-7.43 11.39-13.99 14.52c-6.19 2.95-10.24 5.14-10.24 8.58s4.06 5.64 10.24 8.59c6.56 3.13 13.99 6.67 13.99 14.52s-7.43 11.4-13.99 14.52c-6.19 2.95-10.24 5.14-10.24 8.59 0 3.44 4.06 5.64 10.24 8.59 6.56 3.13 13.99 6.67 13.99 14.52 0 1.82-1.48 3.29-3.29 3.29z"/></svg>