<svg enable-background="new 0 0 30.8 191.4" viewBox="0 0 30.8 191.4" xmlns="http://www.w3.org/2000/svg"><path d="m27.5 191.4c-1.8 0-3.3-1.5-3.3-3.3 0-3.4-4.1-5.6-10.2-8.6-6.6-3.1-14-6.7-14-14.5 0-7.9 7.4-11.4 14-14.5 6.2-2.9 10.2-5.1 10.2-8.6 0-3.4-4.1-5.6-10.2-8.6-6.6-3.1-14-6.7-14-14.5s7.4-11.4 14-14.5c6.2-2.9 10.2-5.1 10.2-8.6s-4.1-5.6-10.2-8.6c-6.6-3.1-14-6.7-14-14.5s7.4-11.4 14-14.5c6.2-3 10.2-5.1 10.2-8.6s-4.1-5.6-10.2-8.6c-6.6-3.1-14-6.7-14-14.5s7.4-11.4 14-14.5c6.2-2.9 10.2-5.1 10.2-8.6 0-1.8 1.5-3.3 3.3-3.3s3.3 1.5 3.3 3.3c0 7.8-7.4 11.4-14 14.5-6.2 3-10.2 5.1-10.2 8.6s4 5.6 10.2 8.6c6.6 3.1 14 6.7 14 14.5s-7.4 11.4-14 14.5c-6.2 3-10.2 5.2-10.2 8.6s4.1 5.6 10.2 8.6c6.6 3.1 14 6.7 14 14.5s-7.4 11.4-14 14.5c-6.2 2.9-10.2 5.1-10.2 8.6s4.1 5.6 10.2 8.6c6.6 3.1 14 6.7 14 14.5s-7.4 11.4-14 14.5c-6.2 2.9-10.2 5.1-10.2 8.6 0 3.4 4.1 5.6 10.2 8.6 6.6 3.1 14 6.7 14 14.5 0 1.8-1.5 3.3-3.3 3.3z" fill="#66ddc0" opacity=".5"/></svg>