<?xml version="1.0" encoding="utf-8"?>
<!-- Generator: Adobe Illustrator 24.3.0, SVG Export Plug-In . SVG Version: 6.00 Build 0)  -->
<svg version="1.1" id="Layer_1" xmlns="http://www.w3.org/2000/svg" xmlns:xlink="http://www.w3.org/1999/xlink" x="0px" y="0px"
	 viewBox="0 0 308.2 200" style="enable-background:new 0 0 308.2 200;" xml:space="preserve">
<style type="text/css">
	.st0{fill:#FFFFFF;}
	.st1{fill:#FFFFFF;stroke:#000000;stroke-miterlimit:10;}
	.st2{fill-rule:evenodd;clip-rule:evenodd;fill:#349980;}
	.st3{stroke:#000000;stroke-miterlimit:10;}
	.st4{fill:none;stroke:#000000;stroke-width:2.5001;stroke-miterlimit:10;}
	.st5{stroke:#000000;stroke-width:2.184;stroke-miterlimit:10;}
	.st6{stroke:#000000;stroke-width:2.6074;stroke-miterlimit:10;}
	.st7{stroke:#000000;stroke-width:2.4949;stroke-miterlimit:10;}
	.st8{stroke:#000000;stroke-width:1.9939;stroke-miterlimit:10;}
	.st9{fill:#FF94A0;}
	.st10{stroke:#000000;stroke-width:6.0394;stroke-miterlimit:10;}
	.st11{stroke:#000000;stroke-width:2.2;stroke-miterlimit:10;}
	.st12{stroke:#000000;stroke-width:2.2685;stroke-miterlimit:10;}
	.st13{stroke:#000000;stroke-width:3.1953;stroke-miterlimit:10;}
	.st14{stroke:#000000;stroke-width:2.9774;stroke-miterlimit:10;}
	.st15{fill:none;stroke:#FFFFFF;stroke-width:7;stroke-miterlimit:10;}
	.st16{stroke:#000000;stroke-width:5.8261;stroke-miterlimit:10;}
	.st17{stroke:#000000;stroke-width:2.7649;stroke-miterlimit:10;}
	.st18{fill:none;stroke:#000000;stroke-width:2.8997;stroke-miterlimit:10;}
	.st19{stroke:#000000;stroke-width:2.3115;stroke-miterlimit:10;}
	.st20{stroke:#000000;stroke-width:3.8235;stroke-miterlimit:10;}
	.st21{fill:none;stroke:#000000;stroke-width:3.8839;stroke-linecap:round;stroke-miterlimit:10;}
	.st22{fill:none;stroke:#000000;stroke-width:4;stroke-linecap:round;stroke-linejoin:round;stroke-miterlimit:10;}
	.st23{fill:none;stroke:#40A629;stroke-width:8.6421;stroke-linecap:round;stroke-linejoin:round;stroke-miterlimit:10;}
	.st24{fill:none;stroke:#000000;stroke-width:4.478;stroke-linecap:round;stroke-linejoin:round;stroke-miterlimit:10;}
	.st25{fill:none;stroke:#000000;stroke-width:13.3644;stroke-linecap:round;stroke-linejoin:round;stroke-miterlimit:10;}
	.st26{fill:none;stroke:#FE330A;stroke-width:13.9806;stroke-linecap:round;stroke-linejoin:round;stroke-miterlimit:10;}
	.st27{fill:none;stroke:#000000;stroke-width:5;stroke-linecap:round;stroke-linejoin:round;stroke-miterlimit:10;}
	.st28{fill:none;stroke:#000000;stroke-width:6;stroke-linecap:round;stroke-linejoin:round;stroke-miterlimit:10;}
	.st29{fill:none;stroke:#000000;stroke-width:3;stroke-linecap:round;stroke-linejoin:round;stroke-miterlimit:10;}
	.st30{fill:none;stroke:#000000;stroke-width:3;stroke-linejoin:round;stroke-miterlimit:10;}
	.st31{fill:none;stroke:#000000;stroke-width:2;stroke-linecap:round;stroke-linejoin:round;stroke-miterlimit:10;}
	.st32{fill:none;stroke:#000000;stroke-width:4.154;stroke-linecap:round;stroke-linejoin:round;stroke-miterlimit:10;}
	.st33{fill:none;}
	.st34{fill-rule:evenodd;clip-rule:evenodd;}
	.st35{fill-rule:evenodd;clip-rule:evenodd;fill:none;}
	.st36{fill-rule:evenodd;clip-rule:evenodd;fill:#F4D23E;}
	.st37{fill-rule:evenodd;clip-rule:evenodd;fill:#A35A6D;}
	.st38{fill-rule:evenodd;clip-rule:evenodd;fill:#3A3074;}
	.st39{fill-rule:evenodd;clip-rule:evenodd;fill:#302A57;}
	.st40{stroke:#000000;stroke-width:1.518;stroke-miterlimit:10;}
	.st41{fill:none;stroke:#00A0C6;stroke-width:8;stroke-miterlimit:10;}
	.st42{fill-rule:evenodd;clip-rule:evenodd;fill:#FE330A;}
	.st43{fill-rule:evenodd;clip-rule:evenodd;fill:#C45778;}
	.st44{fill:none;stroke:#EF1111;stroke-miterlimit:10;}
	.st45{fill:none;stroke:#000000;stroke-width:4.0331;stroke-miterlimit:10;}
	.st46{fill:none;stroke:#FFFFFF;stroke-width:4;stroke-miterlimit:10;}
	.st47{fill-rule:evenodd;clip-rule:evenodd;fill:#4A7651;}
	.st48{fill:#7C4638;}
	.st49{fill:none;stroke:#FF94A0;stroke-width:5;stroke-miterlimit:10;}
	.st50{opacity:0.8;}
	.st51{fill:#C45778;}
</style>
<g>
	<path d="M54.47,50.22L71.81,6.88h8.67l17.31,43.31l-9.22,0.03l-2.6-6.65H66.32l-2.6,6.65H54.47z M76.37,18.44l-6.59,16.47h13
		L76.37,18.44z"/>
	<path d="M104.14,24.79c3.66-2.31,7.9-3.47,12.71-3.47c3.47,0,6.21,0.96,8.23,2.89c2.02,1.93,3.03,4.82,3.03,8.67v17.34h-8.09v-2.31
		c-2.35,1.54-4.47,2.31-6.36,2.31c-3.85,0-6.74-0.82-8.67-2.46c-1.93-1.64-2.89-3.9-2.89-6.79c0-2.7,0.91-5.1,2.73-7.22
		c1.82-2.12,4.76-3.18,8.83-3.18c1.87,0,3.99,0.58,6.36,1.73v-0.87c-0.04-2.12-1.58-3.27-4.62-3.47c-3.47,0-6.16,0.58-8.09,1.73
		L104.14,24.79z M120.03,41.55v-3.27c-0.77-1.48-2.6-2.22-5.49-2.22c-3.47,0.39-5.3,1.73-5.49,4.05c0.19,2.29,2.02,3.54,5.49,3.73
		C117.43,43.83,119.26,43.07,120.03,41.55z"/>
	<path d="M142.8,24.5c2.06-2.12,4.58-3.18,7.54-3.18c0.94,0,1.84,0.08,2.69,0.23l-1.27,7.97c-0.94-0.85-2.29-1.3-4.05-1.36
		c-1.96,0.13-3.6,1.56-4.91,4.28v17.77h-8.09V22.16l8.09-0.87V24.5z"/>
	<path d="M166.44,30.69v19.53h-8.09V6.88h8.09v17.05c1.95-1.73,4.26-2.6,6.93-2.6c3.66,0,6.45,1.11,8.38,3.32
		c1.93,2.22,2.89,4.77,2.89,7.66v17.91h-8.09V34.33c0-1.93-0.48-3.42-1.44-4.48c-0.96-1.06-2.42-1.62-4.36-1.68
		C169.07,28.29,167.63,29.13,166.44,30.69z"/>
	<path d="M207.56,39.96V21.3h8.09v28.92h-8.09v-2.63c-1.95,1.73-4.26,2.6-6.93,2.6c-3.66,0-6.45-1.11-8.38-3.32
		c-1.93-2.21-2.89-4.77-2.89-7.66V21.3h8.09v15.89c0,1.93,0.48,3.42,1.44,4.48c0.96,1.06,2.42,1.62,4.36,1.68
		C204.93,43.23,206.36,42.1,207.56,39.96z"/>
	<path d="M238.96,22.13c1.5,0.66,2.91,1.63,4.22,2.92l-4.51,5.09c-1.31-1.56-2.95-2.34-4.91-2.34c-1.95,0-3.25,0.36-3.9,1.08
		c-0.65,0.72-0.65,1.38,0,1.97c0.65,0.59,1.95,1.07,3.9,1.46c2.87,0.27,5.22,1.09,7.05,2.46c1.83,1.37,2.74,3.75,2.74,7.14
		c0,2.74-1.08,4.85-3.24,6.36c-2.16,1.5-4.67,2.25-7.54,2.25c-2.74,0-5.01-0.39-6.83-1.17c-1.82-0.78-3.39-1.82-4.7-3.14l4.48-5.06
		c1.31,1.56,3.34,2.47,6.1,2.72c2.21,0,3.65-0.36,4.29-1.08c0.65-0.72,0.74-1.44,0.29-2.17c-0.45-0.72-1.98-1.21-4.58-1.46
		c-2.35-0.27-4.5-0.99-6.46-2.17c-1.96-1.17-2.93-3.39-2.93-6.65c0-2.99,1.11-5.26,3.34-6.83c2.22-1.57,4.51-2.36,6.86-2.36
		C235.35,21.15,237.46,21.48,238.96,22.13z"/>
	<path d="M65.51,77.89v35.25h23.12v8.09H56.84V77.89H65.51z"/>
	<path d="M113.01,111.23v-18.9h8.09v26.58c0,4.04-1.25,7.43-3.76,10.14c-2.5,2.72-5.49,4.15-8.96,4.3l-1.73,0.17
		c-4.05-0.12-7.71-1.71-10.98-4.8l3.76-4.33c2.31,1.73,4.5,2.7,6.56,2.89c2.5,0,4.3-0.63,5.39-1.88c1.09-1.25,1.63-3.03,1.63-5.35
		v-1.47c-2.04,1.75-4.4,2.63-7.08,2.63c-3.66,0-6.45-1.11-8.38-3.32c-1.93-2.21-2.89-4.77-2.89-7.66V92.34h8.09v15.89
		c0,1.93,0.48,3.42,1.44,4.48c0.96,1.06,2.42,1.62,4.36,1.68C110.26,114.27,111.74,113.22,113.01,111.23z"/>
	<path d="M155.11,77.92v43.31h-8.09v-2.31c-2.16,1.54-4.28,2.31-6.36,2.31c-4.43,0-7.95-1.44-10.55-4.33
		c-2.6-2.89-3.9-6.26-3.9-10.11c0-3.85,1.3-7.22,3.9-10.11c2.6-2.89,6.12-4.33,10.55-4.33c2.89,0.19,5.01,0.97,6.36,2.34V77.89
		L155.11,77.92z M147.02,109.38v-4.68c-0.39-3.24-2.41-5.13-6.07-5.69c-4.62,0.37-7.22,2.76-7.8,7.19c0.19,5.39,2.79,8.19,7.8,8.38
		C144.61,114.01,146.64,112.27,147.02,109.38z"/>
	<path d="M162.97,77.89h8.67v24.53l8.29-10.08h9.74l-10.81,12.97l13.7,15.92h-11.27l-9.65-11.53v11.53h-8.67V77.89z"/>
	<path d="M214.32,110.97V92.31h8.09v28.92h-8.09v-2.63c-1.95,1.73-4.26,2.6-6.93,2.6c-3.66,0-6.45-1.11-8.38-3.32
		c-1.93-2.21-2.89-4.77-2.89-7.66V92.31h8.09v15.89c0,1.93,0.48,3.42,1.44,4.48c0.96,1.06,2.42,1.62,4.36,1.68
		C211.69,114.24,213.12,113.11,214.32,110.97z"/>
	<path d="M237.49,102.85v18.38h-8.09V93.17l8.09-0.87v2.63c1.95-1.73,4.26-2.6,6.93-2.6c3.66,0,6.45,1.11,8.38,3.32
		c1.93,2.21,2.89,4.77,2.89,7.66v17.92h-8.09v-15.89c0-1.93-0.48-3.42-1.44-4.48c-0.96-1.06-2.42-1.62-4.36-1.68
		C240.12,99.3,238.68,100.52,237.49,102.85z"/>
	<path d="M278.81,93.15c1.5,0.65,2.91,1.63,4.22,2.92l-4.51,5.09c-1.31-1.56-2.95-2.34-4.91-2.34c-1.95,0-3.25,0.36-3.9,1.08
		c-0.65,0.72-0.65,1.38,0,1.96c0.65,0.59,1.95,1.07,3.9,1.46c2.87,0.27,5.22,1.09,7.05,2.46c1.83,1.37,2.75,3.75,2.75,7.14
		c0,2.74-1.08,4.85-3.24,6.36c-2.16,1.5-4.67,2.25-7.54,2.25c-2.74,0-5.01-0.39-6.83-1.17c-1.82-0.78-3.39-1.82-4.7-3.14l4.48-5.06
		c1.31,1.56,3.34,2.47,6.1,2.72c2.21,0,3.64-0.36,4.29-1.08c0.65-0.72,0.74-1.44,0.29-2.17c-0.45-0.72-1.98-1.21-4.58-1.46
		c-2.35-0.27-4.5-0.99-6.46-2.17c-1.96-1.17-2.93-3.39-2.93-6.65c0-2.99,1.11-5.26,3.34-6.83c2.23-1.57,4.51-2.36,6.86-2.36
		C275.2,92.16,277.31,92.49,278.81,93.15z"/>
	<path d="M302.36,121.23c-3.28,0-5.88-0.91-7.8-2.75c-1.93-1.83-2.89-4.19-2.89-7.08V98.9h-4.33v-6.53h4.33v-7.83l8.12-0.87v8.7
		h4.33v6.53h-4.33v11.36c0,1.54,0.32,2.63,0.97,3.25s1.48,0.94,2.5,0.94c0.31,0,1.03-0.13,2.17-0.38l1.7,5.81
		C305.74,120.78,304.15,121.23,302.36,121.23z"/>
	<path d="M56.73,192.24V148.9h30.48v8.09H65.39v9.25h16.09v8.06H65.39v17.94H56.73z"/>
	<path d="M91.31,177.8c0-4.24,1.35-7.7,4.05-10.4c2.7-2.7,6.16-4.05,10.4-4.05c4.24,0,7.61,1.35,10.11,4.05
		c2.5,2.7,3.76,6.16,3.76,10.4v2.89H99.69c0.19,1.54,0.87,2.75,2.02,3.61c1.16,0.87,2.5,1.3,4.05,1.3c2.7,0,5.1-0.77,7.22-2.31
		l4.62,4.62c-2.12,2.89-6.07,4.33-11.85,4.33c-4.24,0-7.71-1.35-10.4-4.05C92.66,185.5,91.31,182.03,91.31,177.8z M109.8,171.29
		c-1.16-0.87-2.5-1.3-4.05-1.3c-1.54,0-2.89,0.43-4.05,1.3c-1.16,0.87-1.73,2.07-1.73,3.61h11.56
		C111.54,173.37,110.96,172.16,109.8,171.29z"/>
	<path d="M142.31,164.16c1.5,0.65,2.91,1.63,4.22,2.92l-4.51,5.09c-1.31-1.56-2.95-2.34-4.91-2.34c-1.95,0-3.25,0.36-3.9,1.08
		c-0.65,0.72-0.65,1.38,0,1.97c0.65,0.59,1.95,1.07,3.9,1.46c2.87,0.27,5.22,1.09,7.05,2.46c1.83,1.37,2.74,3.75,2.74,7.14
		c0,2.74-1.08,4.85-3.24,6.36c-2.16,1.5-4.67,2.25-7.54,2.25c-2.74,0-5.01-0.39-6.83-1.17c-1.82-0.78-3.39-1.82-4.7-3.14l4.48-5.06
		c1.31,1.56,3.34,2.47,6.1,2.72c2.21,0,3.65-0.36,4.29-1.08c0.65-0.72,0.74-1.44,0.29-2.17c-0.45-0.72-1.98-1.21-4.58-1.46
		c-2.35-0.27-4.5-0.99-6.46-2.17c-1.96-1.17-2.93-3.39-2.93-6.65c0-2.99,1.11-5.26,3.34-6.83c2.22-1.57,4.51-2.36,6.86-2.36
		C138.7,163.17,140.81,163.5,142.31,164.16z"/>
	<path d="M165.86,192.24c-3.28,0-5.88-0.91-7.8-2.75c-1.93-1.83-2.89-4.19-2.89-7.08v-12.51h-4.33v-6.53h4.33v-7.83l8.12-0.87v8.7
		h4.33v6.53h-4.33v11.36c0,1.54,0.32,2.63,0.97,3.25c0.65,0.63,1.48,0.94,2.5,0.94c0.31,0,1.03-0.13,2.17-0.38l1.7,5.81
		C169.24,191.79,167.65,192.24,165.86,192.24z"/>
	<path d="M176.41,153.51c0.77-0.78,1.81-1.17,3.12-1.17c1.39,0,2.47,0.39,3.24,1.17c0.77,0.78,1.16,1.75,1.16,2.9
		c0,1.16-0.39,2.12-1.16,2.89c-0.77,0.77-1.83,1.16-3.18,1.16c-1.35,0-2.41-0.39-3.18-1.16c-0.77-0.77-1.16-1.73-1.16-2.89
		C175.25,155.26,175.64,154.29,176.41,153.51z M183.63,192.24v-28.92h-8.09v28.92H183.63z"/>
	<path d="M196.49,163.35l6.79,18.06l6.93-18.06h8.21l-11.59,28.89h-6.93l-11.62-28.89H196.49z"/>
	<path d="M224.23,166.82c3.66-2.31,7.9-3.47,12.71-3.47c3.47,0,6.21,0.96,8.23,2.89c2.02,1.93,3.03,4.82,3.03,8.67v17.34h-8.09
		v-2.31c-2.35,1.54-4.47,2.31-6.36,2.31c-3.85,0-6.74-0.82-8.67-2.46c-1.93-1.64-2.89-3.9-2.89-6.79c0-2.7,0.91-5.1,2.73-7.22
		c1.82-2.12,4.76-3.18,8.83-3.18c1.87,0,3.99,0.58,6.36,1.73v-0.87c-0.04-2.12-1.58-3.27-4.62-3.47c-3.47,0-6.16,0.58-8.09,1.73
		L224.23,166.82z M240.12,183.57v-3.27c-0.77-1.48-2.6-2.22-5.49-2.22c-3.47,0.39-5.3,1.73-5.49,4.05c0.19,2.29,2.02,3.54,5.49,3.73
		C237.52,185.86,239.35,185.1,240.12,183.57z"/>
	<path d="M255.43,192.24V148.9h8.09v43.34H255.43z"/>
	<path d="M29.52,195.41c-1.82,0-3.29-1.47-3.29-3.29c0-3.44-4.06-5.64-10.24-8.59C9.43,180.41,2,176.87,2,169.01
		c0-7.85,7.43-11.4,13.99-14.52c6.19-2.95,10.24-5.14,10.24-8.59c0-3.44-4.06-5.64-10.24-8.59C9.43,134.19,2,130.65,2,122.8
		c0-7.85,7.43-11.39,13.99-14.52c6.19-2.95,10.24-5.14,10.24-8.58c0-3.44-4.06-5.64-10.24-8.58C9.43,87.99,2,84.44,2,76.59
		c0-7.85,7.43-11.39,13.99-14.52c6.19-2.95,10.24-5.14,10.24-8.58c0-3.44-4.06-5.63-10.24-8.58C9.43,41.78,2,38.24,2,30.39
		c0-7.85,7.43-11.39,13.99-14.52c6.19-2.95,10.24-5.14,10.24-8.58C26.23,5.47,27.7,4,29.52,4s3.29,1.47,3.29,3.29
		c0,7.85-7.43,11.39-13.99,14.52c-6.19,2.95-10.24,5.14-10.24,8.58c0,3.44,4.06,5.63,10.24,8.58c6.56,3.13,13.99,6.67,13.99,14.52
		c0,7.85-7.43,11.39-13.99,14.52c-6.19,2.95-10.24,5.14-10.24,8.58c0,3.44,4.06,5.64,10.24,8.58c6.56,3.13,13.99,6.67,13.99,14.52
		s-7.43,11.39-13.99,14.52c-6.19,2.95-10.24,5.14-10.24,8.58c0,3.44,4.06,5.64,10.24,8.59c6.56,3.13,13.99,6.67,13.99,14.52
		c0,7.85-7.43,11.4-13.99,14.52c-6.19,2.95-10.24,5.14-10.24,8.59c0,3.44,4.06,5.64,10.24,8.59c6.56,3.13,13.99,6.67,13.99,14.52
		C32.81,193.94,31.33,195.41,29.52,195.41z"/>
</g>
<g id="Layer_2">
</g>
</svg>
